<?xml version="1.0" encoding="utf-8"?>
<!-- Generator: Adobe Illustrator 16.0.0, SVG Export Plug-In . SVG Version: 6.00 Build 0)  -->
<!DOCTYPE svg PUBLIC "-//W3C//DTD SVG 1.1//EN" "http://www.w3.org/Graphics/SVG/1.1/DTD/svg11.dtd">
<svg version="1.1" xmlns="http://www.w3.org/2000/svg" xmlns:xlink="http://www.w3.org/1999/xlink" x="0px" y="0px" width="512px"
	 height="512px" viewBox="0 0 512 512" enable-background="new 0 0 512 512" xml:space="preserve">
<g id="Layer_1" display="none">
	<g display="inline">
		<defs>
			<rect id="SVGID_1_" width="512" height="512"/>
		</defs>
		<clipPath id="SVGID_2_">
			<use xlink:href="#SVGID_1_"  overflow="visible"/>
		</clipPath>
		<g clip-path="url(#SVGID_2_)">
			<rect x="439" opacity="0.4" fill="#FF5050" enable-background="new    " width="73" height="512"/>
			<rect opacity="0.4" fill="#FF5050" enable-background="new    " width="73" height="512"/>
			<rect x="73" opacity="0.1" fill="#FF5050" enable-background="new    " width="73" height="512"/>
			<rect y="73" opacity="0.1" fill="#FF5050" enable-background="new    " width="512" height="73"/>
			<rect x="366" opacity="0.1" fill="#FF5050" enable-background="new    " width="73" height="512"/>
			<rect y="366" opacity="0.1" fill="#FF5050" enable-background="new    " width="512" height="73"/>
			<rect x="-0.5" opacity="0.4" fill="#FF5050" enable-background="new    " width="512" height="73"/>
			<rect y="439" opacity="0.4" fill="#FF5050" enable-background="new    " width="512" height="73"/>
			<path fill="none" stroke="#FF4D4D" stroke-width="0.25" d="M73,0v512"/>
			<path fill="none" stroke="#FF4D4D" stroke-width="0.25" d="M146,0v512"/>
			<path fill="none" stroke="#FF4D4D" stroke-width="0.25" d="M219,0v512"/>
			<path fill="none" stroke="#FF4D4D" stroke-width="0.25" d="M292,0v512"/>
			<path fill="none" stroke="#FF4D4D" stroke-width="0.25" d="M366,0v512"/>
			<path fill="none" stroke="#FF4D4D" stroke-width="0.25" d="M439,0v512"/>
			<path fill="none" stroke="#FF4D4D" stroke-width="0.25" d="M512,73H0"/>
			<path fill="none" stroke="#FF4D4D" stroke-width="0.25" d="M512,146H0"/>
			<path fill="none" stroke="#FF4D4D" stroke-width="0.25" d="M512,219H0"/>
			<path fill="none" stroke="#FF4D4D" stroke-width="0.25" d="M512,292H0"/>
			<path fill="none" stroke="#FF4D4D" stroke-width="0.25" d="M512,366H0"/>
			<path fill="none" stroke="#FF4D4D" stroke-width="0.25" d="M512,439H0"/>
		</g>
	</g>
</g>
<g id="Layer_2">
	<g>
		<linearGradient id="SVGID_3_" gradientUnits="userSpaceOnUse" x1="126.8135" y1="126.8135" x2="385.1878" y2="385.1878">
			<stop  offset="0" style="stop-color:#FFFFFF"/>
			<stop  offset="0.032" style="stop-color:#DFE3ED"/>
			<stop  offset="0.0762" style="stop-color:#B9C2D8"/>
			<stop  offset="0.124" style="stop-color:#99A5C5"/>
			<stop  offset="0.1753" style="stop-color:#7F8EB7"/>
			<stop  offset="0.2315" style="stop-color:#6A7CAB"/>
			<stop  offset="0.295" style="stop-color:#5C70A3"/>
			<stop  offset="0.372" style="stop-color:#54689E"/>
			<stop  offset="0.5" style="stop-color:#51669D"/>
			<stop  offset="0.628" style="stop-color:#54689E"/>
			<stop  offset="0.705" style="stop-color:#5C70A3"/>
			<stop  offset="0.7685" style="stop-color:#6A7CAB"/>
			<stop  offset="0.8247" style="stop-color:#7F8EB7"/>
			<stop  offset="0.876" style="stop-color:#99A5C5"/>
			<stop  offset="0.9238" style="stop-color:#B9C2D8"/>
			<stop  offset="0.968" style="stop-color:#DFE3ED"/>
			<stop  offset="1" style="stop-color:#FFFFFF"/>
		</linearGradient>
		<circle fill-rule="evenodd" clip-rule="evenodd" fill="url(#SVGID_3_)" cx="256" cy="256" r="182.698"/>
		<circle fill-rule="evenodd" clip-rule="evenodd" fill="#455E9C" cx="256" cy="256" r="170.953"/>
		<path fill-rule="evenodd" clip-rule="evenodd" fill="#FFFFFF" d="M303.171,346.139c-9.375,0-17.938,0-27.777,0
			c9.916-17.151,19.31-33.397,28.979-50.116c-9.203-16.109-18.39-32.188-28.065-49.129c9.67,0,18.204,0,27.492,0
			c4.917,9.904,9.991,20.123,15.551,31.32c5.383-10.8,10.444-20.952,15.622-31.339c8.994,0,17.935,0,27.973,0
			c-9.646,16.727-18.811,32.619-28.279,49.041c9.94,16.354,19.978,32.874,30.603,50.358c-10.729,0-19.784,0-29.315,0
			c-5.253-10.468-10.555-21.03-16.31-32.497C313.799,325.256,308.52,335.63,303.171,346.139z"/>
		<path fill-rule="evenodd" clip-rule="evenodd" fill="#FFFFFF" d="M237.034,302.014c0,7.118,0,13.113,0,19.995
			c11.226,0,22.183,0,33.876,0c0,6.752,0,12.629,0,19.32c-11.301,0-22.27,0-33.722,0c0,7.816,0,14.841,0,23.125
			c13.496,0,26.789,0,40.607,0c0,6.956,0,12.66,0,19.024c-21.94,0-43.463,0-65.627,0c0-33.193,0-66.034,0-99.555
			c21.953,0,43.475,0,65.618,0c0,6.065,0,11.735,0,18.09C264.176,302.014,251.011,302.014,237.034,302.014z"/>
		<path fill-rule="evenodd" clip-rule="evenodd" fill="#C2CADE" d="M170.632,155.438c7.415,0,14.31,0,21.839,0
			c4.992,15.362,9.995,30.76,15.425,47.472c5.478-16.628,10.511-31.906,15.611-47.387c7.454,0,14.504,0,21.969,0
			c0,23.561,0,46.672,0,70.265c-5.562,0-10.66,0-16.591,0c0-13.13,0-26.031,0-38.932c-0.453-0.066-0.904-0.131-1.357-0.196
			c-4.545,12.955-9.092,25.907-13.736,39.141c-3.981,0-7.575,0-11.833,0c-4.56-13.399-9.136-26.845-13.712-40.29
			c-0.366,0.059-0.732,0.117-1.098,0.176c0,13.121,0,26.243,0,39.965c-5.635,0-10.703,0-16.518,0
			C170.632,202.325,170.632,179.065,170.632,155.438z"/>
		<path fill-rule="evenodd" clip-rule="evenodd" fill="#FFFFFF" d="M197.389,265.312c0,27.618,0,53.86,0,80.702
			c-8.109,0-15.564,0-23.955,0c0-26.492,0-53.08,0-80.399c-8.853,0-16.803,0-25.438,0c0-6.602,0-12.474,0-18.796
			c25.087,0,49.953,0,75.29,0c0,6.124,0,11.844,0,18.494C214.768,265.312,206.634,265.312,197.389,265.312z"/>
		<path fill-rule="evenodd" clip-rule="evenodd" fill="#C2CADE" d="M300.941,198.56c0,8.792,0,17.584,0,27.037
			c-5.974,0-11.228,0-17.139,0c0-23.163,0-46.225,0-69.909c5.371,0,10.629,0,16.962,0c0,8.769,0,17.456,0,26.143
			c0.673,0.191,1.346,0.382,2.019,0.575c5.386-8.961,10.771-17.923,16.222-26.993c6.576,0,13.022,0,21.385,0
			c-7.775,11.312-14.799,21.531-21.981,31.98c7.773,12.542,15.391,24.832,23.653,38.163c-7.659,0-14.179,0-21.736,0
			c-5.261-8.853-10.989-18.497-16.718-28.139C302.719,197.798,301.83,198.179,300.941,198.56z"/>
		<path fill-rule="evenodd" clip-rule="evenodd" fill="#C2CADE" d="M256.102,225.598c0-17.393,0-34.225,0-51.723
			c5.519,0,10.77,0,16.626,0c0,17.027,0,34.035,0,51.723C267.473,225.598,262.222,225.598,256.102,225.598z"/>
		<path fill-rule="evenodd" clip-rule="evenodd" fill="#C2CADE" d="M255.977,161.523c0-4.318,0-7.321,0-11.01
			c5.508,0,10.782,0,16.697,0c0,3.394,0,6.919,0,11.01C267.174,161.523,261.76,161.523,255.977,161.523z"/>
	</g>
</g>
</svg>
